<svg width="24" height="24" viewBox="0 0 24 24" fill="none" xmlns="http://www.w3.org/2000/svg">
<path d="M21 7.875V2.625C17.698 4.94934 13.7862 6.25325 9.75 6.375H6.75V13.875C6.75 16.1625 6.75 19.65 10.9875 21.3375H11.25C11.431 21.3448 11.6085 21.2863 11.7497 21.1729C11.8909 21.0595 11.9864 20.8989 12.0184 20.7206C12.0504 20.5423 12.0168 20.3585 11.9238 20.2031C11.8308 20.0476 11.6847 19.9311 11.5125 19.875C8.25 18.6 8.25 16.0875 8.25 13.875H9.75C13.8052 13.8857 17.7494 15.2005 21 17.625V12.375C21.5967 12.375 22.169 12.1379 22.591 11.716C23.0129 11.294 23.25 10.7217 23.25 10.125C23.25 9.52826 23.0129 8.95597 22.591 8.53401C22.169 8.11205 21.5967 7.875 21 7.875ZM0.75 8.625V11.625C0.75 12.2217 0.987053 12.794 1.40901 13.216C1.83097 13.6379 2.40326 13.875 3 13.875H5.25V6.375H3C2.40326 6.375 1.83097 6.61205 1.40901 7.03401C0.987053 7.45597 0.75 8.02826 0.75 8.625Z" fill="#5C50E4"/>
</svg>
